<svg width="39" height="45" viewBox="0 0 39 45" fill="none" xmlns="http://www.w3.org/2000/svg">
<path d="M23.4397 45C17.9159 43.0388 14.4544 39.017 12.5333 33.5869C12.003 32.2025 11.8277 30.7052 12.0237 29.2341C12.2197 27.763 12.7806 26.3657 13.6543 25.1719C15.4471 22.6404 17.933 21.5518 20.9794 22.1782C24.0258 22.8046 26.0068 24.8133 26.8026 27.8588C27.0636 28.861 27.0081 29.9453 27.0851 30.995C27.1069 31.6876 27.3075 32.3623 27.6669 32.9526C28.0264 33.5428 28.5323 34.028 29.1346 34.3602C29.6708 34.6572 30.2699 34.8199 30.8814 34.8346C31.4928 34.8493 32.0988 34.7156 32.6484 34.4447C33.1981 34.1738 33.6752 33.7736 34.0398 33.2778C34.4044 32.782 34.646 32.2051 34.7439 31.5955C34.9556 30.0233 34.8655 28.4247 34.4785 26.8868C33.4559 22.0659 30.9658 18.2471 26.7042 15.7546C23.9285 14.1654 20.7162 13.5306 17.5519 13.9459C14.3876 14.3613 11.4428 15.8042 9.16173 18.057C6.29286 20.8564 4.54355 24.6231 4.24691 28.6402C3.95026 32.6572 5.12686 36.6441 7.55284 39.8421C7.72147 40.0141 7.84964 40.2223 7.92743 40.4512C8.00522 40.68 8.03075 40.9237 8.00223 41.164C7.96748 41.4358 7.8507 41.6903 7.66775 41.8927C7.48479 42.0952 7.24449 42.236 6.97957 42.2958C6.70446 42.3735 6.41222 42.3624 6.14368 42.264C5.87514 42.1656 5.64376 41.9849 5.48204 41.7472C4.09865 40.0077 3.04948 38.0225 2.38857 35.8938C0.347649 29.1116 1.46869 22.8996 5.95273 17.4393C7.44625 15.5558 9.32067 14.0158 11.4509 12.9222C13.581 11.8286 15.918 11.2066 18.3053 11.0978C25.2495 10.6917 30.5636 13.6897 34.3973 19.4178C36.6662 22.8635 37.7929 26.9476 37.6148 31.0814C37.5585 32.7732 36.88 34.3832 35.7116 35.5972C34.5431 36.8112 32.9686 37.5422 31.2952 37.6476C29.6492 37.718 28.0356 37.1709 26.7652 36.1117C25.4949 35.0525 24.6578 33.5561 24.4151 31.9108C24.2782 30.9734 24.3382 30.0101 24.2313 29.0641C23.9018 26.1266 20.8596 24.1005 18.1812 25.0595C16.2943 25.7334 15.3316 27.2454 14.9379 29.1461C14.5443 31.0469 15.0064 32.7273 15.7937 34.3775C17.2071 37.2877 19.3992 39.7403 22.1218 41.4577C22.7157 41.8819 23.4086 42.1425 24.1327 42.2137C24.4238 42.2472 24.6958 42.3774 24.9057 42.5838C25.1155 42.7902 25.2516 43.0612 25.2924 43.3542C25.349 43.6518 25.3061 43.9601 25.1706 44.2305C25.0351 44.501 24.8147 44.7185 24.5436 44.8488L24.2354 45H23.4397Z" fill="#E6E8EB"/>
<path d="M14.8267 44.9999C14.4726 44.7823 14.1402 44.5306 13.8342 44.2483C11.237 41.3885 9.05062 38.2653 7.63866 34.6236C6.44958 31.5758 6.41203 28.193 7.53316 25.119C8.65428 22.0451 10.8558 19.4947 13.7186 17.9533C16.6369 16.4284 20.0287 16.1109 23.1749 17.0681C26.3211 18.0253 28.9744 20.182 30.5723 23.081C31.7064 25.0705 32.3136 27.3215 32.3352 29.6169C32.3352 30.5716 31.8345 31.2066 31.0088 31.2325C30.183 31.2585 29.5797 30.645 29.5541 29.6731C29.5517 28.2121 29.2457 26.7679 28.6561 25.4338C28.0665 24.0996 27.2064 22.9051 26.1311 21.9276C25.001 20.8891 23.6467 20.1306 22.1759 19.7122C20.705 19.2938 19.1578 19.227 17.657 19.517C16.1561 19.8071 14.7428 20.4461 13.5289 21.3834C12.3151 22.3206 11.334 23.5304 10.6636 24.9169C9.10189 28.0358 9.15332 31.1937 10.5353 34.3644C11.9044 37.3616 13.7581 40.1077 16.0205 42.4901C16.6109 43.1381 16.701 43.9329 16.1832 44.4945C15.9573 44.6922 15.7089 44.8619 15.443 44.9999H14.8267Z" fill="#E6E8EB"/>
<path d="M38.9972 17.1369C38.9677 17.169 38.9432 17.2054 38.9245 17.2449C38.8518 17.4999 38.7047 17.7269 38.5025 17.8964C38.3003 18.0659 38.0524 18.1701 37.7907 18.1953C37.5228 18.2381 37.2483 18.1989 37.0027 18.0826C36.7571 17.9663 36.5516 17.7783 36.4129 17.543C35.5177 16.1908 34.4664 14.9509 33.281 13.8495C28.9296 9.84931 23.8208 7.90969 17.9505 8.39351C11.5325 8.92485 6.52223 12.0308 2.78696 17.2795C2.67288 17.5007 2.51489 17.6959 2.32274 17.8527C2.1306 18.0096 1.90828 18.1247 1.67008 18.191C1.39797 18.2452 1.11612 18.2152 0.861144 18.105C0.606168 17.9948 0.390006 17.8095 0.241072 17.5732C0.0778812 17.3439 -0.00655371 17.0671 0.00039722 16.7848C0.00734815 16.5025 0.105238 16.2303 0.279513 16.0094C1.27784 14.6634 2.34914 13.3741 3.48851 12.1475C6.63126 8.95526 10.6596 6.8012 15.0409 5.97007C22.1349 4.60067 28.4889 6.29838 34.111 10.8429C35.8493 12.2662 37.3691 13.9418 38.6207 15.815C38.7577 16.0137 38.8774 16.247 39.0058 16.4371L38.9972 17.1369Z" fill="#E6E8EB"/>
<path d="M20.5566 0C25.828 0.0820774 31.3347 2.23337 36.054 6.44523C36.2668 6.6013 36.4336 6.81267 36.5369 7.05684C36.6401 7.30101 36.6758 7.56886 36.6403 7.83191C36.452 8.96803 35.2153 9.38274 34.2954 8.63972C33.3755 7.89671 32.507 7.14073 31.5443 6.47979C27.7324 3.8718 23.1832 2.58746 18.5842 2.82087C13.6951 3.02708 9.01953 4.9001 5.32038 8.1343C5.11929 8.3071 4.93108 8.48421 4.72998 8.65268C4.45572 8.89894 4.09645 9.02653 3.72988 9.00794C3.36331 8.98936 3.01876 8.82609 2.77032 8.55333C2.6442 8.41558 2.54699 8.25349 2.48452 8.07683C2.42204 7.90016 2.39561 7.71256 2.4068 7.52532C2.41799 7.33807 2.46643 7.15504 2.54949 6.98725C2.63255 6.81945 2.74842 6.67034 2.89003 6.54891C4.84001 4.75097 7.06331 3.28079 9.47495 2.19449C12.6069 0.751657 16.064 0 20.5566 0Z" fill="#E6E8EB"/>
<path d="M28.8571 42.2482C26.9288 42.1121 25.0947 41.355 23.6243 40.0883C20.1585 37.2717 18.1946 33.6517 18.0363 29.1072C18.0064 28.1698 18.567 27.5261 19.3928 27.5131C20.2186 27.5002 20.7705 28.1309 20.8218 29.0596C21.0358 33.237 22.8884 36.4466 26.4098 38.6541C27.2206 39.1458 28.1427 39.4195 29.0881 39.4489C29.2766 39.4487 29.4632 39.4872 29.6365 39.562C29.8099 39.6368 29.9665 39.7465 30.0966 39.8843C30.2266 40.022 30.3275 40.1851 30.3932 40.3635C30.459 40.5419 30.488 40.7319 30.4787 40.922C30.4623 41.1181 30.4069 41.3088 30.3157 41.4828C30.2245 41.6567 30.0995 41.8102 29.948 41.9341C29.7966 42.058 29.6217 42.1496 29.4343 42.2036C29.2468 42.2576 29.0505 42.2728 28.8571 42.2482V42.2482Z" fill="#E6E8EB"/>
</svg>
